<svg xmlns="http://www.w3.org/2000/svg" width="128" height="128" viewBox="0 0 128 128">
  <!-- Background Circle -->
  <circle cx="64" cy="64" r="60" fill="#4CAF50" />
  
  <!-- Plate -->
  <circle cx="64" cy="64" r="45" fill="#ffffff" />
  
  <!-- Fork icon -->
  <g transform="translate(44, 36) scale(0.07)">
    <path d="M357.6,498.8l-150-148.4c-2.4-2.4-5.6-3.6-8.8-3.6s-6.4,1.2-8.8,4L38.4,498.8c-4.8,4.8-4.8,12.8,0,17.6l22,22
      c4.8,4.8,12.8,4.8,17.6,0l114-114l0,338c0,3.3,1.4,6.4,3.9,8.6c2.5,2.3,5.6,3.4,8.9,3.4h32c3.3,0,6.4-1.2,8.9-3.4
      c2.5-2.3,3.9-5.3,3.9-8.6l0-338l114,114c4.8,4.8,12.8,4.8,17.6,0l22-22C362.4,511.6,362.4,503.6,357.6,498.8z" 
      fill="#3c803c" />
  </g>
  
  <!-- Knife icon -->
  <g transform="translate(64, 36) scale(0.07)">
    <path d="M539.6,74.4L425.6,188.4l-3.2-3.2c-32-32-64-32-96,0L154,358c-32,32-32,64,0,96l4.8,4.8L26,591.6
      c-32,32-32,64,0,96l1.6,1.6c32,32,64,32,96,0l132.8-132.8l4.8,4.8c32,32,64,32,96,0l172.8-172.8c32-32,32-64,0-96l-3.2-3.2
      l114-114c6.4-6.4,6.4-16,0-22.4L539.6,74.4C533.2,68,523.6,68,539.6,74.4z M481.6,185.2l-118.4,118.4l16,16
      c9.6,9.6,9.6,25.6,0,35.2L206.4,528c-9.6,9.6-25.6,9.6-35.2,0L115.6,473.2c-9.6-9.6-9.6-25.6,0-35.2l172.8-172.8
      c9.6-9.6,25.6-9.6,35.2,0l16,16l118.4-118.4l57.6,57.6L481.6,185.2z"
      fill="#3c803c" />
  </g>
</svg> 